<svg xmlns="http://www.w3.org/2000/svg" xmlns:xlink="http://www.w3.org/1999/xlink" aria-label="A chart." style="overflow: hidden;" viewBox="0 0 600 390"><defs id="_ABSTRACT_RENDERER_ID_226"><clipPath id="_ABSTRACT_RENDERER_ID_227"><rect x="115" y="75" width="371" height="241"/></clipPath></defs><rect x="0" y="0" width="600" height="390" stroke="none" stroke-width="0" fill="#ffffff"/><g><rect x="115" y="75" width="371" height="241" stroke="none" stroke-width="0" fill-opacity="0" fill="#ffffff"/><g clip-path="url(https://www.rapidtables.com/tools/line-graph.html#_ABSTRACT_RENDERER_ID_227)"><g><rect x="115" y="315" width="371" height="1" stroke="none" stroke-width="0" fill="#cccccc"/><rect x="115" y="267" width="371" height="1" stroke="none" stroke-width="0" fill="#cccccc"/><rect x="115" y="219" width="371" height="1" stroke="none" stroke-width="0" fill="#cccccc"/><rect x="115" y="171" width="371" height="1" stroke="none" stroke-width="0" fill="#cccccc"/><rect x="115" y="123" width="371" height="1" stroke="none" stroke-width="0" fill="#cccccc"/><rect x="115" y="75" width="371" height="1" stroke="none" stroke-width="0" fill="#cccccc"/><rect x="115" y="291" width="371" height="1" stroke="none" stroke-width="0" fill="#ebebeb"/><rect x="115" y="243" width="371" height="1" stroke="none" stroke-width="0" fill="#ebebeb"/><rect x="115" y="195" width="371" height="1" stroke="none" stroke-width="0" fill="#ebebeb"/><rect x="115" y="147" width="371" height="1" stroke="none" stroke-width="0" fill="#ebebeb"/><rect x="115" y="99" width="371" height="1" stroke="none" stroke-width="0" fill="#ebebeb"/></g><g><rect x="115" y="315" width="371" height="1" stroke="none" stroke-width="0" fill="#333333"/></g><g><path d="M130.91666666666666,275.8616L161.75,267.3368L192.58333333333331,267.1928L223.41666666666666,269.6888L254.25,224.6456L285.0833333333333,208.8056L315.91666666666663,201.812L346.75,198.73520000000002L377.5833333333333,178.3784L408.41666666666663,192.3992L439.25,212.3288L470.0833333333333,76.1816" stroke="#2b67b6" stroke-width="3" fill-opacity="1" fill="none"/></g></g><g><circle cx="130.91666666666666" cy="275.8616" r="4.5" stroke="none" stroke-width="0" fill="#2b67b6"/><circle cx="161.75" cy="267.3368" r="4.5" stroke="none" stroke-width="0" fill="#2b67b6"/><circle cx="192.58333333333331" cy="267.1928" r="4.5" stroke="none" stroke-width="0" fill="#2b67b6"/><circle cx="223.41666666666666" cy="269.6888" r="4.5" stroke="none" stroke-width="0" fill="#2b67b6"/><circle cx="254.25" cy="224.6456" r="4.5" stroke="none" stroke-width="0" fill="#2b67b6"/><circle cx="285.0833333333333" cy="208.8056" r="4.5" stroke="none" stroke-width="0" fill="#2b67b6"/><circle cx="315.91666666666663" cy="201.812" r="4.5" stroke="none" stroke-width="0" fill="#2b67b6"/><circle cx="346.75" cy="198.73520000000002" r="4.5" stroke="none" stroke-width="0" fill="#2b67b6"/><circle cx="377.5833333333333" cy="178.3784" r="4.5" stroke="none" stroke-width="0" fill="#2b67b6"/><circle cx="408.41666666666663" cy="192.3992" r="4.5" stroke="none" stroke-width="0" fill="#2b67b6"/><circle cx="439.25" cy="212.3288" r="4.5" stroke="none" stroke-width="0" fill="#2b67b6"/><circle cx="470.0833333333333" cy="76.1816" r="4.5" stroke="none" stroke-width="0" fill="#2b67b6"/></g><g><g><text text-anchor="middle" x="130.91666666666666" y="335.05" font-family="Arial" font-size="13" stroke="none" stroke-width="0" fill="#222222">2013</text></g><g><text text-anchor="middle" x="161.75" y="352.05" font-family="Arial" font-size="13" stroke="none" stroke-width="0" fill="#222222">2014</text></g><g><text text-anchor="middle" x="192.58333333333331" y="335.05" font-family="Arial" font-size="13" stroke="none" stroke-width="0" fill="#222222">2015</text></g><g><text text-anchor="middle" x="223.41666666666666" y="352.05" font-family="Arial" font-size="13" stroke="none" stroke-width="0" fill="#222222">2016</text></g><g><text text-anchor="middle" x="254.25" y="335.05" font-family="Arial" font-size="13" stroke="none" stroke-width="0" fill="#222222">2017</text></g><g><text text-anchor="middle" x="285.0833333333333" y="352.05" font-family="Arial" font-size="13" stroke="none" stroke-width="0" fill="#222222">2018</text></g><g><text text-anchor="middle" x="315.91666666666663" y="335.05" font-family="Arial" font-size="13" stroke="none" stroke-width="0" fill="#222222">2019</text></g><g><text text-anchor="middle" x="346.75" y="352.05" font-family="Arial" font-size="13" stroke="none" stroke-width="0" fill="#222222">2020</text></g><g><text text-anchor="middle" x="377.5833333333333" y="335.05" font-family="Arial" font-size="13" stroke="none" stroke-width="0" fill="#222222">2021</text></g><g><text text-anchor="middle" x="408.41666666666663" y="352.05" font-family="Arial" font-size="13" stroke="none" stroke-width="0" fill="#222222">2022</text></g><g><text text-anchor="middle" x="439.25" y="335.05" font-family="Arial" font-size="13" stroke="none" stroke-width="0" fill="#222222">2023</text></g><g><text text-anchor="middle" x="470.0833333333333" y="352.05" font-family="Arial" font-size="13" stroke="none" stroke-width="0" fill="#222222">2024</text></g><g><text text-anchor="end" x="102" y="320.05" font-family="Arial" font-size="13" stroke="none" stroke-width="0" fill="#444444">0</text></g><g><text text-anchor="end" x="102" y="272.05" font-family="Arial" font-size="13" stroke="none" stroke-width="0" fill="#444444">100</text></g><g><text text-anchor="end" x="102" y="224.05" font-family="Arial" font-size="13" stroke="none" stroke-width="0" fill="#444444">200</text></g><g><text text-anchor="end" x="102" y="176.05" font-family="Arial" font-size="13" stroke="none" stroke-width="0" fill="#444444">300</text></g><g><text text-anchor="end" x="102" y="128.05" font-family="Arial" font-size="13" stroke="none" stroke-width="0" fill="#444444">400</text></g><g><text text-anchor="end" x="102" y="80.05" font-family="Arial" font-size="13" stroke="none" stroke-width="0" fill="#444444">500</text></g></g></g><g><g><text text-anchor="middle" x="300.5" y="376.55" font-family="Arial" font-size="13" font-style="italic" stroke="none" stroke-width="0" fill="#222222">Dump Year</text><rect x="115" y="365.5" width="371" height="13" stroke="none" stroke-width="0" fill-opacity="0" fill="#ffffff"/></g><g><text text-anchor="middle" x="44.55" y="195.5" font-family="Arial" font-size="13" font-style="italic" transform="rotate(-90 44.55 195.5)" stroke="none" stroke-width="0" fill="#222222">Documents per 10k</text><path d="M33.49999999999999,316L33.50000000000001,75L46.50000000000001,75L46.49999999999999,316Z" stroke="none" stroke-width="0" fill-opacity="0" fill="#ffffff"/></g></g><g/></svg>