<?xml version="1.0" standalone="no"?>
<!DOCTYPE svg PUBLIC "-//W3C//DTD SVG 20010904//EN"
 "http://www.w3.org/TR/2001/REC-SVG-20010904/DTD/svg10.dtd">
<svg version="1.0" xmlns="http://www.w3.org/2000/svg"
 width="512.000000pt" height="512.000000pt" viewBox="0 0 512.000000 512.000000"
 preserveAspectRatio="xMidYMid meet">
<metadata>
Created by potrace 1.11, written by Peter Selinger 2001-2013
</metadata>
<g transform="translate(0.000000,512.000000) scale(0.100000,-0.100000)"
fill="#000000" stroke="none">
<path d="M592 5079 c-45 -17 -44 76 -44 -2077 0 -1582 3 -2045 12 -2063 17
-34 849 -867 885 -887 27 -14 165 -16 1540 -17 831 -1 1524 3 1540 7 17 4 36
16 43 25 9 13 12 527 12 2489 l0 2473 -24 28 -24 28 -1962 0 c-1078 0 -1969
-3 -1978 -6z m1142 -399 c92 -41 172 -135 213 -246 27 -73 23 -230 -6 -306
-86 -221 -308 -322 -504 -231 -73 35 -140 98 -180 171 -53 97 -67 245 -33 352
47 149 177 272 304 287 26 3 48 6 49 8 9 7 117 -16 157 -35z m1386 -500 c70
-19 170 -87 170 -116 0 -20 -74 -114 -90 -114 -8 0 -40 16 -70 37 -48 32 -62
37 -128 39 -84 4 -110 -6 -174 -64 -142 -128 -106 -373 66 -457 89 -43 177
-33 259 30 25 19 51 35 57 35 14 0 89 -81 90 -97 0 -18 -79 -82 -141 -113
-155 -79 -332 -51 -458 72 -148 145 -166 399 -41 586 98 145 281 210 460 162z
m1064 -17 c5 -12 -13 -68 -54 -168 -4 -11 -31 -83 -60 -160 -28 -77 -56 -149
-61 -160 -5 -11 -34 -87 -65 -170 -30 -82 -61 -155 -67 -162 -12 -12 -182 -21
-193 -10 -5 5 -144 370 -183 482 -10 28 -42 114 -71 192 -29 78 -50 149 -46
158 5 13 20 15 87 13 l82 -3 59 -165 c57 -158 66 -182 87 -232 5 -13 20 -52
32 -88 29 -87 37 -100 58 -100 10 0 21 8 24 18 15 51 201 549 209 559 20 24
153 21 162 -4z m-2738 -616 c108 -111 123 -121 159 -107 15 6 66 50 115 100
50 51 98 91 112 94 15 2 48 -8 84 -26 124 -64 223 -163 298 -298 60 -111 98
-292 68 -322 -10 -10 -161 -13 -690 -15 -751 -2 -722 -5 -722 61 0 86 61 251
130 351 63 90 235 235 261 219 5 -3 9 -1 9 5 0 11 47 29 72 28 10 -1 56 -41
104 -90z m2741 -1057 c90 -55 94 -180 7 -240 l-37 -24 -1592 -1 c-1387 0
-1596 2 -1621 15 -106 54 -111 185 -11 249 32 20 44 21 1627 21 1565 0 1596 0
1627 -20z m-7 -749 c89 -50 105 -154 34 -225 -25 -25 -47 -37 -77 -41 -23 -3
-746 -4 -1607 -3 -1705 3 -1598 -1 -1642 58 -54 73 -19 189 66 216 17 6 652
10 1615 9 1337 0 1590 -2 1611 -14z m-2474 -584 c11 -10 12 -817 2 -839 -5
-10 -16 -18 -24 -18 -22 0 -446 428 -438 442 4 7 3 8 -5 4 -11 -7 -401 374
-401 392 0 4 5 13 10 18 12 12 844 13 856 1z m2475 -292 c62 -28 97 -121 68
-178 -22 -42 -63 -77 -98 -83 -47 -9 -2075 -9 -2122 -1 -21 4 -48 21 -67 40
-85 88 -27 229 98 239 19 2 496 2 1059 1 949 -1 1026 -2 1062 -18z"/>
</g>
</svg>
