<svg xmlns="http://www.w3.org/2000/svg" viewBox="0 0 24 24" aria-hidden="true" focusable="false">
  <path fill="currentColor" d="M12 2C6.486 2 2 6.486 2 12s4.486 10 10 10 10-4.486 10-10S17.514 2 12 2zm-1.938 5.25h1.812v9.5h-1.812v-9.5zm-1.5 9.5h-1.75v-9.5h1.75v9.5zm8.063.125c-2.238 0-4.063-1.826-4.063-4.063s1.825-4.063 4.063-4.063c2.237 0 4.063 1.826 4.063 4.063s-1.826 4.063-4.063 4.063zm0-6.5c-1.348 0-2.438 1.09-2.438 2.437 0 1.348 1.09 2.438 2.438 2.438 1.347 0 2.437-1.09 2.437-2.438 0-1.347-1.09-2.437-2.437-2.437z"/>
</svg>
